<?xml version="1.0" standalone="no"?>
<!DOCTYPE svg PUBLIC "-//W3C//DTD SVG 20010904//EN"
 "http://www.w3.org/TR/2001/REC-SVG-20010904/DTD/svg10.dtd">
<svg version="1.0" xmlns="http://www.w3.org/2000/svg"
 width="195.000000pt" height="195.000000pt" viewBox="0 0 195.000000 195.000000"
 preserveAspectRatio="xMidYMid meet">

<g transform="translate(0.000000,195.000000) scale(0.100000,-0.100000)"
fill="#000000" stroke="none">
<path d="M563 1803 c15 -2 37 -2 50 0 12 2 0 4 -28 4 -27 0 -38 -2 -22 -4z"/>
<path d="M1383 1803 c15 -2 37 -2 50 0 12 2 0 4 -28 4 -27 0 -38 -2 -22 -4z"/>
<path d="M462 1778 c-8 -8 -12 -46 -12 -104 0 -75 3 -94 18 -105 14 -11 15
-11 5 1 -16 18 -18 154 -2 145 6 -4 5 2 -3 14 -10 17 -10 25 0 41 14 23 12 26
-6 8z"/>
<path d="M1521 1773 c11 -19 12 -27 1 -44 -8 -12 -9 -18 -3 -14 16 9 14 -127
-1 -145 -11 -12 -10 -12 5 -1 25 19 25 192 0 212 -15 13 -15 12 -2 -8z"/>
<path d="M638 1763 c6 -2 18 -2 25 0 6 3 1 5 -13 5 -14 0 -19 -2 -12 -5z"/>
<path d="M1328 1763 c6 -2 18 -2 25 0 6 3 1 5 -13 5 -14 0 -19 -2 -12 -5z"/>
<path d="M732 1730 c0 -19 2 -27 5 -17 2 9 2 25 0 35 -3 9 -5 1 -5 -18z"/>
<path d="M1251 1729 c1 -19 3 -26 6 -16 3 10 9 14 16 10 7 -4 5 2 -3 13 -8 10
-16 21 -17 23 -2 2 -2 -11 -2 -30z"/>
<path d="M928 1743 c7 -3 16 -2 19 1 4 3 -2 6 -13 5 -11 0 -14 -3 -6 -6z"/>
<path d="M1048 1743 c7 -3 16 -2 19 1 4 3 -2 6 -13 5 -11 0 -14 -3 -6 -6z"/>
<path d="M878 1733 c7 -3 16 -2 19 1 4 3 -2 6 -13 5 -11 0 -14 -3 -6 -6z"/>
<path d="M1098 1733 c7 -3 16 -2 19 1 4 3 -2 6 -13 5 -11 0 -14 -3 -6 -6z"/>
<path d="M838 1723 c7 -3 16 -2 19 1 4 3 -2 6 -13 5 -11 0 -14 -3 -6 -6z"/>
<path d="M653 1713 c9 -2 25 -2 35 0 9 3 1 5 -18 5 -19 0 -27 -2 -17 -5z"/>
<path d="M1303 1713 c9 -2 25 -2 35 0 9 3 1 5 -18 5 -19 0 -27 -2 -17 -5z"/>
<path d="M758 1703 c7 -3 16 -2 19 1 4 3 -2 6 -13 5 -11 0 -14 -3 -6 -6z"/>
<path d="M1218 1703 c7 -3 16 -2 19 1 4 3 -2 6 -13 5 -11 0 -14 -3 -6 -6z"/>
<path d="M678 1693 c6 -2 18 -2 25 0 6 3 1 5 -13 5 -14 0 -19 -2 -12 -5z"/>
<path d="M945 1669 c-4 -17 -4 -33 -1 -36 3 -4 6 -1 6 6 0 9 8 11 25 7 26 -7
26 -7 10 24 -20 38 -32 38 -40 -1z"/>
<path d="M1087 1673 c-3 -15 -1 -32 4 -37 6 -6 9 -4 9 7 0 11 8 17 21 17 28 0
21 34 -7 38 -17 2 -23 -3 -27 -25z m33 7 c0 -5 -4 -10 -10 -10 -5 0 -10 5 -10
10 0 6 5 10 10 10 6 0 10 -4 10 -10z"/>
<path d="M1283 1693 c9 -2 23 -2 30 0 6 3 -1 5 -18 5 -16 0 -22 -2 -12 -5z"/>
<path d="M858 1685 c-2 -3 -3 -18 0 -35 5 -33 31 -41 51 -16 23 28 -26 76 -51
51z m37 -28 c0 -26 -20 -25 -23 2 -3 16 1 22 10 19 7 -3 13 -12 13 -21z"/>
<path d="M1172 1681 c-8 -4 -12 -19 -10 -32 4 -34 52 -34 56 0 3 20 -11 41
-28 41 -3 0 -11 -4 -18 -9z m38 -25 c0 -20 -19 -31 -32 -18 -6 6 -7 15 -4 21
10 16 36 13 36 -3z"/>
<path d="M821 1660 c-2 -23 -3 -24 -15 -7 -7 9 -16 17 -20 17 -9 0 -7 -43 4
-60 8 -13 10 -12 10 4 0 15 3 16 15 6 22 -19 30 -5 18 32 -10 30 -11 31 -12 8z"/>
<path d="M1247 1663 c-4 -3 -7 -19 -7 -35 0 -22 4 -28 23 -28 20 1 20 2 4 11
-12 7 -15 17 -11 35 6 24 3 30 -9 17z"/>
<path d="M716 1638 c-3 -13 -6 -31 -6 -41 0 -17 1 -17 16 -2 12 12 19 13 30 4
19 -15 18 -3 -3 32 -21 35 -29 36 -37 7z"/>
<path d="M1310 1648 c0 -7 -3 -24 -7 -37 -4 -16 -2 -22 4 -18 13 8 23 67 11
67 -4 0 -8 -6 -8 -12z"/>
<path d="M547 1626 c-9 -33 2 -50 29 -44 14 2 20 13 21 38 l2 35 -10 -32 c-5
-18 -14 -33 -19 -33 -5 0 -10 15 -12 33 l-3 32 -8 -29z"/>
<path d="M630 1635 c-20 -25 -8 -50 25 -50 31 0 43 24 16 33 -10 3 -12 0 -8
-12 4 -10 1 -16 -9 -16 -10 0 -14 8 -12 23 2 15 9 21 22 19 11 -2 15 1 11 7
-9 15 -30 14 -45 -4z"/>
<path d="M1344 1636 c-10 -26 1 -51 24 -54 12 -2 22 1 22 7 0 6 -6 8 -14 5
-18 -7 -28 9 -20 30 4 11 13 15 26 10 14 -4 18 -2 14 5 -10 16 -46 14 -52 -3z"/>
<path d="M1427 1643 c-4 -3 -7 -19 -7 -35 0 -24 4 -28 28 -27 l27 1 -25 8 -25
8 25 8 25 8 -25 7 c-24 7 -24 7 -2 8 12 1 22 6 22 11 0 11 -33 14 -43 3z"/>
<path d="M978 1603 c6 -2 18 -2 25 0 6 3 1 5 -13 5 -14 0 -19 -2 -12 -5z"/>
<path d="M918 1593 c7 -3 16 -2 19 1 4 3 -2 6 -13 5 -11 0 -14 -3 -6 -6z"/>
<path d="M1058 1593 c7 -3 16 -2 19 1 4 3 -2 6 -13 5 -11 0 -14 -3 -6 -6z"/>
<path d="M868 1583 c7 -3 16 -2 19 1 4 3 -2 6 -13 5 -11 0 -14 -3 -6 -6z"/>
<path d="M1108 1583 c7 -3 16 -2 19 1 4 3 -2 6 -13 5 -11 0 -14 -3 -6 -6z"/>
<path d="M828 1573 c7 -3 16 -2 19 1 4 3 -2 6 -13 5 -11 0 -14 -3 -6 -6z"/>
<path d="M1148 1573 c7 -3 16 -2 19 1 4 3 -2 6 -13 5 -11 0 -14 -3 -6 -6z"/>
<path d="M778 1563 c7 -3 16 -2 19 1 4 3 -2 6 -13 5 -11 0 -14 -3 -6 -6z"/>
<path d="M1198 1563 c7 -3 16 -2 19 1 4 3 -2 6 -13 5 -11 0 -14 -3 -6 -6z"/>
<path d="M718 1553 c7 -3 16 -2 19 1 4 3 -2 6 -13 5 -11 0 -14 -3 -6 -6z"/>
<path d="M1258 1553 c7 -3 16 -2 19 1 4 3 -2 6 -13 5 -11 0 -14 -3 -6 -6z"/>
<path d="M518 1543 c7 -3 16 -2 19 1 4 3 -2 6 -13 5 -11 0 -14 -3 -6 -6z"/>
<path d="M570 1543 c-20 -7 -40 -33 -40 -51 0 -12 4 -11 20 3 20 18 21 18 18
-13 -1 -18 -6 -32 -10 -32 -4 0 -12 -9 -18 -21 -11 -19 -10 -20 12 -8 21 11
22 11 9 -4 -11 -15 -11 -17 1 -17 8 0 19 5 26 12 18 18 15 48 -5 48 -15 0 -15
1 0 18 10 10 17 31 17 45 0 27 -3 30 -30 20z"/>
<path d="M623 1543 c9 -2 25 -2 35 0 9 3 1 5 -18 5 -19 0 -27 -2 -17 -5z"/>
<path d="M883 1535 c-18 -8 -33 -17 -33 -20 0 -4 11 -21 24 -38 22 -29 23 -34
10 -51 -8 -11 -14 -30 -14 -41 0 -17 -9 -25 -40 -34 -21 -6 -42 -17 -46 -23
-4 -7 -3 -8 4 -4 18 11 83 -4 76 -18 -3 -6 1 -3 9 7 18 21 47 13 47 -14 0 -25
-27 -36 -52 -20 -17 11 -18 10 -10 -5 7 -13 1 -28 -26 -63 -19 -25 -41 -60
-48 -78 -17 -38 -18 -120 -4 -160 15 -38 113 -128 171 -156 56 -26 55 -22 65
-244 l7 -153 -30 0 c-17 0 -46 -3 -64 -7 l-34 -7 33 -6 c36 -6 47 -24 16 -27
-18 -3 -18 -2 1 7 19 9 19 10 1 7 -11 -1 -21 -8 -24 -14 -6 -19 46 -16 65 2 8
9 28 19 44 22 22 4 27 9 19 18 -10 12 -32 366 -23 375 5 5 69 -64 98 -105 21
-30 0 -192 -26 -200 -25 -8 -33 -35 -9 -35 10 0 22 5 25 10 4 6 11 8 16 5 5
-3 6 0 3 8 -3 8 2 56 10 107 l15 93 -45 51 c-49 57 -51 62 -26 62 9 0 36 3 59
7 40 7 44 5 70 -28 15 -19 35 -56 44 -82 l16 -48 7 40 c13 72 24 86 26 30 l2
-50 19 40 c39 80 7 169 -93 259 -57 51 -199 133 -255 148 -21 6 -23 12 -23 68
0 67 8 88 51 138 16 18 29 44 29 57 0 22 4 25 35 25 30 0 35 3 34 23 -1 16 -2
18 -6 5 -7 -28 -48 -22 -61 8 -10 20 -9 29 2 45 13 20 14 19 34 -8 12 -15 22
-23 22 -16 0 20 -53 75 -87 89 -41 18 -89 17 -130 -1z m77 -29 c0 -16 -7 -26
-22 -30 -36 -9 -42 -7 -57 15 -16 27 -2 39 47 39 27 0 32 -4 32 -24z m61 9
c25 -13 28 -19 19 -35 -18 -35 -70 -16 -70 25 0 29 10 31 51 10z m-40 -121
c11 -31 -16 -66 -48 -62 -31 4 -56 38 -34 45 10 4 11 7 1 13 -22 13 -2 27 36
26 28 -1 39 -6 45 -22z m-114 -60 c-3 -3 -12 -4 -19 -1 -8 3 -5 6 6 6 11 1 17
-2 13 -5z m47 -158 c-11 -32 -15 -64 -11 -97 4 -33 2 -49 -5 -49 -6 0 -9 -3
-5 -6 3 -3 1 -11 -4 -18 -5 -6 -18 -21 -29 -34 l-19 -24 -7 36 c-11 62 13 141
68 219 27 38 31 29 12 -27z m213 -176 c45 -20 132 -95 166 -145 l21 -30 -29
25 -28 25 13 -25 c13 -24 12 -24 -6 -10 -10 8 -30 23 -43 35 -19 15 -16 9 10
-25 l34 -45 -40 24 -40 24 25 -28 c15 -17 19 -26 10 -23 -8 3 -53 18 -100 33
-107 36 -150 73 -150 134 0 27 5 43 18 51 22 13 84 5 139 -20z"/>
<path d="M1353 1543 c30 -3 37 -8 33 -20 -7 -17 18 -63 33 -63 5 0 7 10 3 23
-5 22 -5 22 16 3 12 -11 22 -27 22 -37 0 -27 18 -32 23 -7 l4 23 2 -23 c2 -33
21 -17 21 17 0 31 -30 66 -38 43 -2 -8 -14 -2 -32 18 -24 26 -34 30 -77 28
-44 -1 -45 -2 -10 -5z"/>
<path d="M1458 1543 c7 -3 16 -2 19 1 4 3 -2 6 -13 5 -11 0 -14 -3 -6 -6z"/>
<path d="M479 1486 c-6 -13 -8 -33 -4 -43 7 -17 8 -17 15 2 7 17 9 17 9 3 1
-10 6 -18 12 -18 14 0 7 72 -8 78 -7 2 -18 -8 -24 -22z"/>
<path d="M1382 1434 c2 -17 11 -30 27 -36 18 -6 22 -5 18 6 -4 10 -1 13 9 9 7
-3 14 -1 14 5 0 13 -20 28 -48 37 -21 6 -23 4 -20 -21z"/>
<path d="M434 1405 c-14 -22 -15 -30 -4 -53 l13 -27 7 25 6 25 8 -25 7 -25 10
24 c7 17 6 34 -2 53 -14 35 -24 35 -45 3z"/>
<path d="M1510 1411 c-13 -25 -13 -51 0 -71 8 -12 11 -11 17 10 l7 25 6 -25 7
-25 13 27 c11 23 10 31 -4 53 -20 30 -32 32 -46 6z"/>
<path d="M514 1355 c-14 -14 -23 -29 -20 -32 4 -4 12 -1 18 5 21 21 32 13 12
-9 -19 -22 -19 -22 6 -14 33 10 39 16 42 45 4 35 -26 37 -58 5z"/>
<path d="M1410 1360 c0 -24 34 -60 57 -60 14 0 14 2 -3 21 -19 22 -19 22 4 10
34 -18 38 -6 9 23 -32 32 -67 35 -67 6z"/>
<path d="M376 1318 c-22 -31 -20 -61 5 -89 18 -21 19 -22 15 -4 -3 11 -2 26 3
33 6 10 10 4 15 -20 5 -26 9 -30 16 -18 22 34 0 120 -30 120 -5 0 -16 -10 -24
-22z"/>
<path d="M1560 1315 c-15 -28 -16 -83 -1 -98 6 -6 13 2 19 24 l10 34 1 -35 2
-35 19 24 c24 28 25 59 4 89 -20 29 -37 28 -54 -3z"/>
<path d="M511 1276 c-25 -8 -39 -21 -48 -44 -15 -36 -8 -36 30 -4 19 17 24 3
5 -16 -16 -16 -4 -25 20 -18 24 8 47 59 35 79 -6 12 -14 13 -42 3z"/>
<path d="M1434 1276 c-10 -27 5 -66 31 -78 31 -14 43 -4 24 19 -13 17 -13 17
14 0 26 -17 27 -17 27 3 0 20 -32 60 -49 60 -5 0 -16 3 -25 6 -10 4 -18 0 -22
-10z"/>
<path d="M320 1208 c-27 -45 -25 -81 6 -115 l25 -28 -4 33 c-5 45 7 48 22 5
16 -42 31 -29 31 27 0 31 -40 110 -56 110 -2 0 -13 -15 -24 -32z"/>
<path d="M1614 1205 c-18 -24 -27 -48 -27 -74 0 -62 14 -72 35 -26 l19 40 -3
-44 -4 -43 28 31 c33 37 36 73 8 119 -11 17 -22 32 -24 32 -3 0 -17 -16 -32
-35z"/>
<path d="M480 1162 c-24 -12 -39 -28 -46 -52 -7 -19 -10 -37 -8 -39 2 -3 18 5
34 18 34 25 37 21 13 -16 -17 -25 -17 -26 7 -18 50 15 72 50 63 98 -6 32 -16
33 -63 9z"/>
<path d="M1444 1155 c-9 -34 12 -80 42 -94 38 -17 47 -13 30 11 -26 37 -18 44
14 13 l30 -29 0 28 c0 40 -17 66 -55 82 -47 19 -54 18 -61 -11z"/>
<path d="M287 1059 c-36 -55 -26 -123 22 -149 28 -15 33 -13 21 9 -5 11 -10
30 -10 43 0 19 4 17 24 -17 l24 -40 7 28 c10 39 -1 73 -39 114 l-33 37 -16
-25z"/>
<path d="M1663 1065 c-28 -20 -53 -76 -53 -119 0 -46 11 -46 38 2 22 38 30 24
12 -22 -11 -29 -8 -31 22 -15 31 17 49 70 37 112 -13 48 -30 60 -56 42z"/>
<path d="M458 1024 c-34 -18 -48 -43 -48 -86 l1 -33 31 35 c31 33 34 28 13
-24 -8 -17 -6 -17 23 -2 41 21 55 50 47 92 -7 38 -23 42 -67 18z"/>
<path d="M1466 1024 c-14 -38 -6 -72 25 -98 39 -33 51 -33 39 0 -15 39 -12 40
20 9 l30 -29 0 38 c0 30 -7 44 -31 67 -34 32 -73 38 -83 13z"/>
<path d="M270 885 c-14 -36 -12 -96 3 -116 14 -18 57 -43 63 -36 2 2 -3 21
-11 43 l-15 39 28 -32 c16 -18 32 -33 35 -33 4 0 7 15 7 34 0 37 -24 74 -70
106 l-30 21 -10 -26z"/>
<path d="M1673 889 c-36 -23 -76 -97 -71 -131 3 -22 4 -22 37 12 30 32 32 33
26 10 -4 -14 -11 -29 -16 -34 -19 -21 -7 -25 25 -9 42 20 60 59 53 114 -7 55
-16 62 -54 38z"/>
<path d="M452 875 c-34 -28 -47 -69 -34 -104 8 -23 9 -23 31 14 25 44 35 42
22 -3 -12 -40 0 -41 33 -1 29 34 32 55 14 94 -14 32 -29 32 -66 0z"/>
<path d="M1470 881 c-19 -36 -12 -80 16 -106 36 -33 44 -31 33 7 -12 45 -5 45
21 1 22 -38 23 -38 32 -14 13 37 0 77 -34 106 -35 30 -54 32 -68 6z"/>
<path d="M476 729 c-25 -30 -34 -77 -20 -113 10 -26 20 -18 35 27 l13 42 6
-45 5 -45 23 35 c26 42 27 63 5 101 -22 37 -35 37 -67 -2z"/>
<path d="M1446 738 c-23 -32 -20 -81 7 -114 l22 -29 6 40 5 40 13 -45 c12 -41
14 -43 27 -25 23 31 17 89 -12 124 -31 37 -47 39 -68 9z"/>
<path d="M284 695 c-16 -66 22 -129 86 -142 l35 -6 -28 32 c-36 44 -34 59 4
27 34 -29 49 -33 49 -12 0 36 -90 126 -126 126 -8 0 -16 -11 -20 -25z"/>
<path d="M1638 699 c-41 -21 -63 -49 -73 -91 -9 -35 4 -36 44 -2 38 32 40 22
4 -24 l-26 -35 33 7 c61 12 98 67 86 131 -8 40 -16 42 -68 14z"/>
<path d="M541 603 c-39 -49 -40 -98 -1 -144 l19 -24 2 30 c0 17 4 41 8 55 7
23 9 21 18 -20 l9 -45 17 32 c25 48 22 85 -11 116 -15 15 -31 27 -34 27 -4 0
-16 -12 -27 -27z"/>
<path d="M1385 606 c-31 -31 -34 -92 -7 -127 l19 -22 8 44 8 44 7 -47 c8 -62
15 -67 39 -27 27 44 26 78 -1 119 -30 44 -42 47 -73 16z"/>
<path d="M334 527 c-7 -18 11 -86 29 -111 11 -15 16 -16 40 -5 19 9 26 18 22
28 -5 13 -4 14 6 4 7 -7 33 -13 59 -12 25 0 39 3 31 6 -8 3 -26 19 -39 35 -42
49 -136 85 -148 55z"/>
<path d="M1581 527 c-18 -6 -53 -30 -77 -54 l-44 -43 43 0 c24 0 49 6 56 13
10 10 11 9 6 -4 -4 -10 3 -19 22 -28 24 -11 29 -10 40 5 18 24 36 93 29 110
-6 16 -27 16 -75 1z"/>
<path d="M613 423 c9 -2 23 -2 30 0 6 3 -1 5 -18 5 -16 0 -22 -2 -12 -5z"/>
<path d="M1353 423 c9 -2 23 -2 30 0 6 3 -1 5 -18 5 -16 0 -22 -2 -12 -5z"/>
<path d="M688 413 c7 -3 16 -2 19 1 4 3 -2 6 -13 5 -11 0 -14 -3 -6 -6z"/>
<path d="M1288 413 c7 -3 16 -2 19 1 4 3 -2 6 -13 5 -11 0 -14 -3 -6 -6z"/>
<path d="M748 403 c7 -3 16 -2 19 1 4 3 -2 6 -13 5 -11 0 -14 -3 -6 -6z"/>
<path d="M1228 403 c7 -3 16 -2 19 1 4 3 -2 6 -13 5 -11 0 -14 -3 -6 -6z"/>
<path d="M798 393 c7 -3 16 -2 19 1 4 3 -2 6 -13 5 -11 0 -14 -3 -6 -6z"/>
<path d="M1178 393 c7 -3 16 -2 19 1 4 3 -2 6 -13 5 -11 0 -14 -3 -6 -6z"/>
<path d="M1138 383 c7 -3 16 -2 19 1 4 3 -2 6 -13 5 -11 0 -14 -3 -6 -6z"/>
<path d="M510 344 c0 -35 1 -36 14 -18 14 18 15 18 21 2 11 -28 20 -21 20 15
0 28 -4 32 -27 35 -26 3 -28 1 -28 -34z m40 16 c0 -5 -7 -10 -16 -10 -8 0 -12
5 -9 10 3 6 10 10 16 10 5 0 9 -4 9 -10z"/>
<path d="M878 373 c7 -3 16 -2 19 1 4 3 -2 6 -13 5 -11 0 -14 -3 -6 -6z"/>
<path d="M1088 373 c7 -3 16 -2 19 1 4 3 -2 6 -13 5 -11 0 -14 -3 -6 -6z"/>
<path d="M1338 373 c-19 -5 -21 -17 -8 -48 8 -19 9 -19 9 -1 1 18 2 18 19 3
22 -20 36 -22 25 -5 -4 7 -7 22 -8 32 0 21 -10 26 -37 19z m27 -13 c3 -5 -1
-10 -10 -10 -9 0 -13 5 -10 10 3 6 8 10 10 10 2 0 7 -4 10 -10z"/>
<path d="M1400 377 c0 -14 23 -67 29 -67 10 0 33 51 27 58 -3 3 -8 -3 -12 -12
-8 -20 -24 -21 -24 -2 0 8 -4 18 -10 21 -5 3 -10 4 -10 2z"/>
<path d="M438 365 c-8 -8 3 -65 13 -65 5 0 9 5 9 11 0 7 7 17 17 24 9 7 13 17
9 23 -7 12 -38 16 -48 7z m32 -15 c0 -5 -4 -10 -10 -10 -5 0 -10 5 -10 10 0 6
5 10 10 10 6 0 10 -4 10 -10z"/>
<path d="M590 340 c0 -28 3 -31 28 -28 21 2 27 8 27 28 0 20 -6 26 -27 28 -25
3 -28 0 -28 -28z m48 3 c-5 -26 -38 -29 -38 -4 0 15 6 21 21 21 14 0 19 -5 17
-17z"/>
<path d="M1028 363 c7 -3 16 -2 19 1 4 3 -2 6 -13 5 -11 0 -14 -3 -6 -6z"/>
<path d="M1268 363 c-10 -3 -18 -14 -18 -26 0 -34 12 -44 40 -36 24 7 24 7 3
8 -27 1 -31 18 -5 24 12 3 9 5 -8 6 l-25 2 25 14 c25 14 21 17 -12 8z"/>
<path d="M1485 358 c-13 -40 -10 -53 15 -55 14 -1 18 0 8 3 -10 3 -18 10 -18
15 0 5 8 9 18 10 10 0 12 3 5 6 -22 8 -14 21 10 17 20 -4 21 -4 2 5 -28 13
-35 13 -40 -1z"/>
<path d="M677 353 c8 -3 11 -14 7 -30 -5 -18 -3 -24 5 -19 6 4 11 16 11 26 0
10 6 21 13 23 6 3 -1 5 -18 5 -16 0 -24 -2 -18 -5z"/>
<path d="M734 336 c-11 -28 1 -51 26 -53 22 -1 22 -1 3 4 -13 2 -23 9 -23 14
0 5 10 10 23 10 16 1 18 2 5 6 -10 2 -18 9 -18 14 0 6 10 8 23 4 17 -5 19 -4
7 4 -21 15 -40 13 -46 -3z"/>
<path d="M1180 330 c0 -13 7 -20 20 -20 11 0 20 -5 20 -11 0 -6 -9 -8 -22 -4
-18 6 -20 5 -11 -5 6 -7 19 -10 27 -7 20 8 21 37 2 37 -8 0 -18 5 -22 12 -5 8
-2 9 9 5 10 -3 17 -2 17 3 0 6 -9 10 -20 10 -13 0 -20 -7 -20 -20z"/>
<path d="M800 300 c0 -25 4 -30 25 -30 14 0 25 4 25 9 0 5 -9 7 -20 4 -16 -4
-20 0 -20 17 0 19 4 21 26 16 17 -5 23 -3 19 4 -3 5 -17 10 -31 10 -20 0 -24
-5 -24 -30z"/>
<path d="M879 316 c5 -6 11 -22 14 -36 l4 -25 2 27 c0 16 8 28 19 30 10 3 4 6
-15 9 -23 4 -30 2 -24 -5z"/>
<path d="M1009 318 c0 -2 -3 -18 -5 -35 -4 -27 -2 -33 13 -33 28 0 48 16 33
25 -7 4 -16 2 -21 -6 -4 -7 -11 -10 -16 -5 -4 4 0 12 10 17 21 12 23 39 2 39
-8 0 -15 -1 -16 -2z"/>
<path d="M448 253 c7 -3 16 -2 19 1 4 3 -2 6 -13 5 -11 0 -14 -3 -6 -6z"/>
<path d="M551 223 c0 -23 3 -45 9 -48 6 -3 7 1 4 10 -4 8 0 23 7 32 8 10 9 14
2 10 -7 -5 -13 1 -16 15 -2 13 -5 4 -6 -19z"/>
<path d="M613 253 c9 -2 23 -2 30 0 6 3 -1 5 -18 5 -16 0 -22 -2 -12 -5z"/>
<path d="M1353 253 c9 -2 23 -2 30 0 6 3 -1 5 -18 5 -16 0 -22 -2 -12 -5z"/>
<path d="M388 228 c-13 -13 -17 -18 -8 -12 8 6 24 16 35 22 11 6 15 12 8 12
-7 0 -22 -10 -35 -22z"/>
<path d="M688 243 c6 -2 18 -2 25 0 6 3 1 5 -13 5 -14 0 -19 -2 -12 -5z"/>
<path d="M1288 243 c7 -3 16 -2 19 1 4 3 -2 6 -13 5 -11 0 -14 -3 -6 -6z"/>
<path d="M748 233 c7 -3 16 -2 19 1 4 3 -2 6 -13 5 -11 0 -14 -3 -6 -6z"/>
<path d="M1228 233 c7 -3 16 -2 19 1 4 3 -2 6 -13 5 -11 0 -14 -3 -6 -6z"/>
<path d="M1610 214 c14 -16 26 -31 28 -33 1 -2 2 2 2 10 0 8 -13 23 -28 33
l-27 19 25 -29z"/>
<path d="M619 202 c-3 -20 -2 -29 4 -23 5 5 7 19 5 32 -3 20 -5 19 -9 -9z"/>
<path d="M1360 206 c0 -14 4 -27 8 -30 5 -3 6 8 4 25 -5 35 -12 38 -12 5z"/>
<path d="M675 210 c3 -5 8 -10 11 -10 2 0 4 5 4 10 0 6 -5 10 -11 10 -5 0 -7
-4 -4 -10z"/>
<path d="M1300 209 c0 -5 5 -7 10 -4 6 3 10 8 10 11 0 2 -4 4 -10 4 -5 0 -10
-5 -10 -11z"/>
<path d="M908 193 c7 -3 16 -2 19 1 4 3 -2 6 -13 5 -11 0 -14 -3 -6 -6z"/>
<path d="M1058 193 c6 -2 18 -2 25 0 6 3 1 5 -13 5 -14 0 -19 -2 -12 -5z"/>
<path d="M988 183 c7 -3 16 -2 19 1 4 3 -2 6 -13 5 -11 0 -14 -3 -6 -6z"/>
<path d="M372 154 c10 -10 20 -16 22 -13 3 3 -5 11 -17 18 -21 13 -21 12 -5
-5z"/>
<path d="M1606 155 c-11 -8 -15 -15 -9 -15 6 0 16 7 23 15 16 19 11 19 -14 0z"/>
<path d="M488 123 c18 -2 45 -2 60 0 15 2 0 4 -33 4 -33 0 -45 -2 -27 -4z"/>
<path d="M1448 123 c17 -2 47 -2 65 0 17 2 3 4 -33 4 -36 0 -50 -2 -32 -4z"/>
</g>
</svg>
